ffmpeg started on 2026-01-20 at 13:32:51
Report written to "D:\Convert\FFMetrics\reports\psnr_report-6.txt"
Log level: 32
Command line:
ffmpeg -hide_banner -nostdin -r 24000/1001 -i "F:\\Convert\\files\\[DC] Make Heroine ga Oosugiru - 07_Telegram_HEVC(195).mkv" -r 24000/1001 -i "F:\\Convert\\files\\[DC] Make Heroine ga Oosugiru - 07_Telegram.mp4" -lavfi "[0:v]settb=AVTB,setpts=PTS-STARTPTS,format=pix_fmts=yuv420p10le,fps=24000/1001,scale=1920:1080:flags=lanczos:param0=3:out_range=limited:out_color_matrix=bt709:out_chroma_loc=left,setsar=1/1,setdar=(1920/1080)*(1/1),colorspace=format=yuv420p10:range=tv:primaries=bt709:trc=bt709:space=bt709:fast=0[main];[1:v]settb=AVTB,setpts=PTS-STARTPTS,format=pix_fmts=yuv420p,fps=24000/1001,scale=1920:1080:flags=lanczos:param0=3:out_range=limited:out_color_matrix=bt709:out_chroma_loc=left,setsar=1.000,setdar=1.778,colorspace=format=yuv420p:range=tv:primaries=bt709:trc=bt709:space=bt709:fast=0[ref];[main][ref]psnr=eof_action=endall:stats_file='D\\:/Convert/FFMetrics/logs/psnr_logfile-6.txt'" -f null -
Input #0, matroska,webm, from 'F:\Convert\files\[DC] Make Heroine ga Oosugiru - 07_Telegram_HEVC(195).mkv':
  Metadata:
    COMPATIBLE_BRANDS: isomiso2avc1mp41
    MAJOR_BRAND     : isom
    MINOR_VERSION   : 512
    ENCODER         : Lavf61.7.100
  Duration: 00:24:06.79, start: -0.021000, bitrate: 968 kb/s
  Stream #0:0: Video: hevc (Main 10), yuv420p10le(tv, bt709, progressive), 1920x1080 [SAR 1:1 DAR 16:9], 23.98 fps, 23.98 tbr, 1k tbn (default)
      Metadata:
        HANDLER_NAME    : VideoHandler
        VENDOR_ID       : [0][0][0][0]
        ENCODER         : Lavc61.19.100 libx265
        BPS             : 771437
        DURATION        : 00:24:06.569708333
        NUMBER_OF_FRAMES: 34683
        NUMBER_OF_BYTES : 139492158
        _STATISTICS_WRITING_APP: mkvpropedit v94.0 ('Initiate') 64-bit
        _STATISTICS_WRITING_DATE_UTC: 2026-01-19 16:01:38
        _STATISTICS_TAGS: BPS DURATION NUMBER_OF_FRAMES NUMBER_OF_BYTES
  Stream #0:1: Audio: aac (LC), 48000 Hz, stereo, fltp (default)
      Metadata:
        HANDLER_NAME    : SoundHandler
        VENDOR_ID       : [0][0][0][0]
        ENCODER         : Lavc61.19.100 aac
        BPS             : 193194
        DURATION        : 00:24:06.784000000
        NUMBER_OF_FRAMES: 67819
        NUMBER_OF_BYTES : 34938755
        _STATISTICS_WRITING_APP: mkvpropedit v94.0 ('Initiate') 64-bit
        _STATISTICS_WRITING_DATE_UTC: 2026-01-19 16:01:38
        _STATISTICS_TAGS: BPS DURATION NUMBER_OF_FRAMES NUMBER_OF_BYTES
Input #1, mov,mp4,m4a,3gp,3g2,mj2, from 'F:\Convert\files\[DC] Make Heroine ga Oosugiru - 07_Telegram.mp4':
  Metadata:
    major_brand     : isom
    minor_version   : 512
    compatible_brands: isomiso2avc1mp41
    encoder         : Lavf60.16.100
  Duration: 00:24:06.74, start: 0.000000, bitrate: 3764 kb/s
  Stream #1:0[0x1](und): Video: h264 (High) (avc1 / 0x31637661), yuv420p(tv, bt709, progressive), 1920x1080 [SAR 1:1 DAR 16:9], 3616 kb/s, 23.98 fps, 23.98 tbr, 24k tbn (default)
      Metadata:
        handler_name    : VideoHandler
        vendor_id       : [0][0][0][0]
        encoder         : Lavc60.31.102 h264_qsv
  Stream #1:1[0x2](und): Audio: aac (HE-AACv2) (mp4a / 0x6134706D), 48000 Hz, stereo, fltp, 144 kb/s (default)
      Metadata:
        handler_name    : SoundHandler
        vendor_id       : [0][0][0][0]
Stream mapping:
  Stream #0:0 (hevc) -> settb:default
  Stream #1:0 (h264) -> settb:default
  psnr:default -> Stream #0:0 (wrapped_avframe)
  Stream #0:1 -> #0:1 (aac (native) -> pcm_s16le (native))
Output #0, null, to 'pipe:':
  Metadata:
    COMPATIBLE_BRANDS: isomiso2avc1mp41
    MAJOR_BRAND     : isom
    MINOR_VERSION   : 512
    encoder         : Lavf61.7.100
  Stream #0:0: Video: wrapped_avframe, yuv420p10le(tv, bt709, progressive), 1920x1080 [SAR 1:1 DAR 16:9], q=2-31, 200 kb/s, 23.98 fps, 23.98 tbn
      Metadata:
        encoder         : Lavc61.19.100 wrapped_avframe
  Stream #0:1: Audio: pcm_s16le, 48000 Hz, stereo, s16, 1536 kb/s (default)
      Metadata:
        HANDLER_NAME    : SoundHandler
        VENDOR_ID       : [0][0][0][0]
        _STATISTICS_TAGS: BPS DURATION NUMBER_OF_FRAMES NUMBER_OF_BYTES
        BPS             : 193194
        DURATION        : 00:24:06.784000000
        NUMBER_OF_FRAMES: 67819
        NUMBER_OF_BYTES : 34938755
        _STATISTICS_WRITING_APP: mkvpropedit v94.0 ('Initiate') 64-bit
        _STATISTICS_WRITING_DATE_UTC: 2026-01-19 16:01:38
        encoder         : Lavc61.19.100 pcm_s16le
frame=  124 fps=0.0 q=-0.0 size=N/A time=00:00:05.17 bitrate=N/A speed=10.2x    frame=  312 fps=302 q=-0.0 size=N/A time=00:00:13.01 bitrate=N/A speed=12.6x    frame=  505 fps=327 q=-0.0 size=N/A time=00:00:21.06 bitrate=N/A speed=13.6x    frame=  691 fps=336 q=-0.0 size=N/A time=00:00:28.82 bitrate=N/A speed=  14x    frame=  880 fps=341 q=-0.0 size=N/A time=00:00:36.70 bitrate=N/A speed=14.2x    frame= 1018 fps=329 q=-0.0 size=N/A time=00:00:42.45 bitrate=N/A speed=13.7x    frame= 1174 fps=326 q=-0.0 size=N/A time=00:00:48.96 bitrate=N/A speed=13.6x    frame= 1332 fps=323 q=-0.0 size=N/A time=00:00:55.55 bitrate=N/A speed=13.5x    frame= 1487 fps=321 q=-0.0 size=N/A time=00:01:02.02 bitrate=N/A speed=13.4x    frame= 1627 fps=316 q=-0.0 size=N/A time=00:01:07.85 bitrate=N/A speed=13.2x    frame= 1781 fps=314 q=-0.0 size=N/A time=00:01:14.28 bitrate=N/A speed=13.1x    frame= 1938 fps=313 q=-0.0 size=N/A time=00:01:20.83 bitrate=N/A speed=13.1x    frame= 2071 fps=309 q=-0.0 size=N/A time=00:01:26.37 bitrate=N/A speed=12.9x    frame= 2182 fps=303 q=-0.0 size=N/A time=00:01:31.00 bitrate=N/A speed=12.6x    frame= 2324 fps=301 q=-0.0 size=N/A time=00:01:36.93 bitrate=N/A speed=12.5x    frame= 2460 fps=298 q=-0.0 size=N/A time=00:01:42.60 bitrate=N/A speed=12.4x    frame= 2582 fps=295 q=-0.0 size=N/A time=00:01:47.69 bitrate=N/A speed=12.3x    frame= 2748 fps=296 q=-0.0 size=N/A time=00:01:54.61 bitrate=N/A speed=12.4x    frame= 2919 fps=298 q=-0.0 size=N/A time=00:02:01.74 bitrate=N/A speed=12.4x    frame= 3094 fps=300 q=-0.0 size=N/A time=00:02:09.04 bitrate=N/A speed=12.5x    frame= 3288 fps=304 q=-0.0 size=N/A time=00:02:17.13 bitrate=N/A speed=12.7x    frame= 3481 fps=307 q=-0.0 size=N/A time=00:02:25.18 bitrate=N/A speed=12.8x    frame= 3677 fps=310 q=-0.0 size=N/A time=00:02:33.36 bitrate=N/A speed=12.9x    frame= 3870 fps=313 q=-0.0 size=N/A time=00:02:41.41 bitrate=N/A speed=13.1x    frame= 4067 fps=315 q=-0.0 size=N/A time=00:02:49.62 bitrate=N/A speed=13.2x    frame= 4254 fps=317 q=-0.0 size=N/A time=00:02:57.42 bitrate=N/A speed=13.2x    frame= 4445 fps=320 q=-0.0 size=N/A time=00:03:05.39 bitrate=N/A speed=13.3x    frame= 4652 fps=322 q=-0.0 size=N/A time=00:03:14.02 bitrate=N/A speed=13.4x    frame= 4832 fps=323 q=-0.0 size=N/A time=00:03:21.53 bitrate=N/A speed=13.5x    frame= 5015 fps=324 q=-0.0 size=N/A time=00:03:29.16 bitrate=N/A speed=13.5x    frame= 5164 fps=323 q=-0.0 size=N/A time=00:03:35.38 bitrate=N/A speed=13.5x    frame= 5349 fps=324 q=-0.0 size=N/A time=00:03:43.09 bitrate=N/A speed=13.5x    frame= 5529 fps=325 q=-0.0 size=N/A time=00:03:50.60 bitrate=N/A speed=13.6x    frame= 5665 fps=323 q=-0.0 size=N/A time=00:03:56.27 bitrate=N/A speed=13.5x    frame= 5827 fps=323 q=-0.0 size=N/A time=00:04:03.03 bitrate=N/A speed=13.5x    frame= 5990 fps=323 q=-0.0 size=N/A time=00:04:09.83 bitrate=N/A speed=13.5x    frame= 6151 fps=322 q=-0.0 size=N/A time=00:04:16.54 bitrate=N/A speed=13.4x    frame= 6308 fps=322 q=-0.0 size=N/A time=00:04:23.09 bitrate=N/A speed=13.4x    frame= 6452 fps=321 q=-0.0 size=N/A time=00:04:29.10 bitrate=N/A speed=13.4x    frame= 6632 fps=321 q=-0.0 size=N/A time=00:04:36.60 bitrate=N/A speed=13.4x    frame= 6824 fps=323 q=-0.0 size=N/A time=00:04:44.61 bitrate=N/A speed=13.5x    frame= 7008 fps=323 q=-0.0 size=N/A time=00:04:52.29 bitrate=N/A speed=13.5x    frame= 7186 fps=324 q=-0.0 size=N/A time=00:04:59.71 bitrate=N/A speed=13.5x    frame= 7382 fps=325 q=-0.0 size=N/A time=00:05:07.89 bitrate=N/A speed=13.6x    frame= 7572 fps=326 q=-0.0 size=N/A time=00:05:15.81 bitrate=N/A speed=13.6x    frame= 7746 fps=326 q=-0.0 size=N/A time=00:05:23.07 bitrate=N/A speed=13.6x    frame= 7941 fps=327 q=-0.0 size=N/A time=00:05:31.20 bitrate=N/A speed=13.7x    frame= 8132 fps=328 q=-0.0 size=N/A time=00:05:39.17 bitrate=N/A speed=13.7x    frame= 8304 fps=328 q=-0.0 size=N/A time=00:05:46.34 bitrate=N/A speed=13.7x    frame= 8467 fps=328 q=-0.0 size=N/A time=00:05:53.14 bitrate=N/A speed=13.7x    frame= 8662 fps=329 q=-0.0 size=N/A time=00:06:01.27 bitrate=N/A speed=13.7x    frame= 8851 fps=330 q=-0.0 size=N/A time=00:06:09.16 bitrate=N/A speed=13.8x    frame= 9037 fps=330 q=-0.0 size=N/A time=00:06:16.91 bitrate=N/A speed=13.8x    frame= 9220 fps=331 q=-0.0 size=N/A time=00:06:24.55 bitrate=N/A speed=13.8x    frame= 9422 fps=332 q=-0.0 size=N/A time=00:06:32.97 bitrate=N/A speed=13.8x    frame= 9611 fps=333 q=-0.0 size=N/A time=00:06:40.85 bitrate=N/A speed=13.9x    frame= 9798 fps=333 q=-0.0 size=N/A time=00:06:48.65 bitrate=N/A speed=13.9x    frame= 9988 fps=334 q=-0.0 size=N/A time=00:06:56.58 bitrate=N/A speed=13.9x    frame=10175 fps=334 q=-0.0 size=N/A time=00:07:04.38 bitrate=N/A speed=13.9x    frame=10364 fps=335 q=-0.0 size=N/A time=00:07:12.26 bitrate=N/A speed=  14x    frame=10548 fps=335 q=-0.0 size=N/A time=00:07:19.93 bitrate=N/A speed=  14x    frame=10741 fps=336 q=-0.0 size=N/A time=00:07:27.98 bitrate=N/A speed=  14x    frame=10923 fps=336 q=-0.0 size=N/A time=00:07:35.58 bitrate=N/A speed=  14x    frame=11118 fps=337 q=-0.0 size=N/A time=00:07:43.71 bitrate=N/A speed=  14x    frame=11298 fps=337 q=-0.0 size=N/A time=00:07:51.22 bitrate=N/A speed=14.1x    frame=11495 fps=337 q=-0.0 size=N/A time=00:07:59.43 bitrate=N/A speed=14.1x    frame=11679 fps=338 q=-0.0 size=N/A time=00:08:07.11 bitrate=N/A speed=14.1x    frame=11877 fps=339 q=-0.0 size=N/A time=00:08:15.36 bitrate=N/A speed=14.1x    frame=12074 fps=339 q=-0.0 size=N/A time=00:08:23.58 bitrate=N/A speed=14.1x    frame=12260 fps=339 q=-0.0 size=N/A time=00:08:31.34 bitrate=N/A speed=14.2x    frame=12449 fps=340 q=-0.0 size=N/A time=00:08:39.22 bitrate=N/A speed=14.2x    frame=12620 fps=340 q=-0.0 size=N/A time=00:08:46.35 bitrate=N/A speed=14.2x    frame=12809 fps=340 q=-0.0 size=N/A time=00:08:54.24 bitrate=N/A speed=14.2x    frame=13002 fps=340 q=-0.0 size=N/A time=00:09:02.29 bitrate=N/A speed=14.2x    frame=13192 fps=341 q=-0.0 size=N/A time=00:09:10.21 bitrate=N/A speed=14.2x    frame=13376 fps=341 q=-0.0 size=N/A time=00:09:17.89 bitrate=N/A speed=14.2x    frame=13563 fps=341 q=-0.0 size=N/A time=00:09:25.69 bitrate=N/A speed=14.2x    frame=13750 fps=342 q=-0.0 size=N/A time=00:09:33.48 bitrate=N/A speed=14.2x    frame=13935 fps=342 q=-0.0 size=N/A time=00:09:41.20 bitrate=N/A speed=14.3x    frame=14110 fps=342 q=-0.0 size=N/A time=00:09:48.50 bitrate=N/A speed=14.3x    frame=14290 fps=342 q=-0.0 size=N/A time=00:09:56.01 bitrate=N/A speed=14.3x    frame=14481 fps=342 q=-0.0 size=N/A time=00:10:03.97 bitrate=N/A speed=14.3x    frame=14660 fps=342 q=-0.0 size=N/A time=00:10:11.44 bitrate=N/A speed=14.3x    frame=14850 fps=343 q=-0.0 size=N/A time=00:10:19.36 bitrate=N/A speed=14.3x    frame=15037 fps=343 q=-0.0 size=N/A time=00:10:27.16 bitrate=N/A speed=14.3x    frame=15189 fps=342 q=-0.0 size=N/A time=00:10:33.50 bitrate=N/A speed=14.3x    frame=15380 fps=343 q=-0.0 size=N/A time=00:10:41.47 bitrate=N/A speed=14.3x    frame=15574 fps=343 q=-0.0 size=N/A time=00:10:49.56 bitrate=N/A speed=14.3x    frame=15754 fps=343 q=-0.0 size=N/A time=00:10:57.07 bitrate=N/A speed=14.3x    frame=15950 fps=344 q=-0.0 size=N/A time=00:11:05.24 bitrate=N/A speed=14.3x    frame=16148 fps=344 q=-0.0 size=N/A time=00:11:13.50 bitrate=N/A speed=14.3x    frame=16337 fps=344 q=-0.0 size=N/A time=00:11:21.38 bitrate=N/A speed=14.4x    frame=16519 fps=344 q=-0.0 size=N/A time=00:11:29.02 bitrate=N/A speed=14.4x    frame=16708 fps=345 q=-0.0 size=N/A time=00:11:36.86 bitrate=N/A speed=14.4x    frame=16906 fps=345 q=-0.0 size=N/A time=00:11:45.12 bitrate=N/A speed=14.4x    frame=17101 fps=345 q=-0.0 size=N/A time=00:11:53.25 bitrate=N/A speed=14.4x    frame=17294 fps=346 q=-0.0 size=N/A time=00:12:01.30 bitrate=N/A speed=14.4x    frame=17476 fps=346 q=-0.0 size=N/A time=00:12:08.89 bitrate=N/A speed=14.4x    frame=17668 fps=346 q=-0.0 size=N/A time=00:12:16.90 bitrate=N/A speed=14.4x    frame=17852 fps=346 q=-0.0 size=N/A time=00:12:24.57 bitrate=N/A speed=14.4x    frame=18040 fps=346 q=-0.0 size=N/A time=00:12:32.41 bitrate=N/A speed=14.4x    frame=18230 fps=346 q=-0.0 size=N/A time=00:12:40.34 bitrate=N/A speed=14.4x    frame=18410 fps=346 q=-0.0 size=N/A time=00:12:47.85 bitrate=N/A speed=14.5x    frame=18596 fps=347 q=-0.0 size=N/A time=00:12:55.60 bitrate=N/A speed=14.5x    frame=18791 fps=347 q=-0.0 size=N/A time=00:13:03.74 bitrate=N/A speed=14.5x    frame=18985 fps=347 q=-0.0 size=N/A time=00:13:11.83 bitrate=N/A speed=14.5x    frame=19176 fps=347 q=-0.0 size=N/A time=00:13:19.79 bitrate=N/A speed=14.5x    frame=19364 fps=348 q=-0.0 size=N/A time=00:13:27.64 bitrate=N/A speed=14.5x    frame=19547 fps=348 q=-0.0 size=N/A time=00:13:35.27 bitrate=N/A speed=14.5x    frame=19740 fps=348 q=-0.0 size=N/A time=00:13:43.32 bitrate=N/A speed=14.5x    frame=19930 fps=348 q=-0.0 size=N/A time=00:13:51.24 bitrate=N/A speed=14.5x    frame=20127 fps=348 q=-0.0 size=N/A time=00:13:59.46 bitrate=N/A speed=14.5x    frame=20321 fps=349 q=-0.0 size=N/A time=00:14:07.55 bitrate=N/A speed=14.5x    frame=20509 fps=349 q=-0.0 size=N/A time=00:14:15.39 bitrate=N/A speed=14.5x    frame=20680 fps=349 q=-0.0 size=N/A time=00:14:22.52 bitrate=N/A speed=14.5x    frame=20872 fps=349 q=-0.0 size=N/A time=00:14:30.53 bitrate=N/A speed=14.5x    frame=21068 fps=349 q=-0.0 size=N/A time=00:14:38.71 bitrate=N/A speed=14.6x    frame=21260 fps=349 q=-0.0 size=N/A time=00:14:46.71 bitrate=N/A speed=14.6x    frame=21445 fps=349 q=-0.0 size=N/A time=00:14:54.43 bitrate=N/A speed=14.6x    frame=21642 fps=350 q=-0.0 size=N/A time=00:15:02.65 bitrate=N/A speed=14.6x    frame=21835 fps=350 q=-0.0 size=N/A time=00:15:10.70 bitrate=N/A speed=14.6x    frame=22016 fps=350 q=-0.0 size=N/A time=00:15:18.25 bitrate=N/A speed=14.6x    frame=22214 fps=350 q=-0.0 size=N/A time=00:15:26.50 bitrate=N/A speed=14.6x    frame=22401 fps=350 q=-0.0 size=N/A time=00:15:34.30 bitrate=N/A speed=14.6x    frame=22588 fps=350 q=-0.0 size=N/A time=00:15:42.10 bitrate=N/A speed=14.6x    frame=22774 fps=350 q=-0.0 size=N/A time=00:15:49.86 bitrate=N/A speed=14.6x    frame=22954 fps=350 q=-0.0 size=N/A time=00:15:57.37 bitrate=N/A speed=14.6x    frame=23144 fps=351 q=-0.0 size=N/A time=00:16:05.29 bitrate=N/A speed=14.6x    frame=23331 fps=351 q=-0.0 size=N/A time=00:16:13.09 bitrate=N/A speed=14.6x    frame=23528 fps=351 q=-0.0 size=N/A time=00:16:21.31 bitrate=N/A speed=14.6x    frame=23721 fps=351 q=-0.0 size=N/A time=00:16:29.36 bitrate=N/A speed=14.6x    frame=23905 fps=351 q=-0.0 size=N/A time=00:16:37.03 bitrate=N/A speed=14.6x    frame=24103 fps=351 q=-0.0 size=N/A time=00:16:45.29 bitrate=N/A speed=14.7x    frame=24284 fps=351 q=-0.0 size=N/A time=00:16:52.84 bitrate=N/A speed=14.7x    frame=24477 fps=352 q=-0.0 size=N/A time=00:17:00.89 bitrate=N/A speed=14.7x    frame=24670 fps=352 q=-0.0 size=N/A time=00:17:08.94 bitrate=N/A speed=14.7x    frame=24867 fps=352 q=-0.0 size=N/A time=00:17:17.16 bitrate=N/A speed=14.7x    frame=25060 fps=352 q=-0.0 size=N/A time=00:17:25.21 bitrate=N/A speed=14.7x    frame=25244 fps=352 q=-0.0 size=N/A time=00:17:32.88 bitrate=N/A speed=14.7x    frame=25440 fps=352 q=-0.0 size=N/A time=00:17:41.06 bitrate=N/A speed=14.7x    frame=25632 fps=352 q=-0.0 size=N/A time=00:17:49.06 bitrate=N/A speed=14.7x    frame=25827 fps=353 q=-0.0 size=N/A time=00:17:57.20 bitrate=N/A speed=14.7x    frame=26017 fps=353 q=-0.0 size=N/A time=00:18:05.12 bitrate=N/A speed=14.7x    frame=26213 fps=353 q=-0.0 size=N/A time=00:18:13.30 bitrate=N/A speed=14.7x    frame=26399 fps=353 q=-0.0 size=N/A time=00:18:21.05 bitrate=N/A speed=14.7x    frame=26594 fps=353 q=-0.0 size=N/A time=00:18:29.19 bitrate=N/A speed=14.7x    frame=26793 fps=353 q=-0.0 size=N/A time=00:18:37.49 bitrate=N/A speed=14.7x    frame=26976 fps=353 q=-0.0 size=N/A time=00:18:45.12 bitrate=N/A speed=14.7x    frame=27153 fps=353 q=-0.0 size=N/A time=00:18:52.50 bitrate=N/A speed=14.7x    frame=27346 fps=353 q=-0.0 size=N/A time=00:19:00.55 bitrate=N/A speed=14.7x    frame=27531 fps=353 q=-0.0 size=N/A time=00:19:08.27 bitrate=N/A speed=14.7x    frame=27719 fps=354 q=-0.0 size=N/A time=00:19:16.11 bitrate=N/A speed=14.7x    frame=27909 fps=354 q=-0.0 size=N/A time=00:19:24.03 bitrate=N/A speed=14.8x    frame=28107 fps=354 q=-0.0 size=N/A time=00:19:32.29 bitrate=N/A speed=14.8x    frame=28288 fps=354 q=-0.0 size=N/A time=00:19:39.84 bitrate=N/A speed=14.8x    frame=28483 fps=354 q=-0.0 size=N/A time=00:19:47.97 bitrate=N/A speed=14.8x    frame=28672 fps=354 q=-0.0 size=N/A time=00:19:55.86 bitrate=N/A speed=14.8x    frame=28842 fps=354 q=-0.0 size=N/A time=00:20:02.95 bitrate=N/A speed=14.8x    frame=29014 fps=354 q=-0.0 size=N/A time=00:20:10.12 bitrate=N/A speed=14.8x    frame=29189 fps=354 q=-0.0 size=N/A time=00:20:17.42 bitrate=N/A speed=14.8x    frame=29365 fps=354 q=-0.0 size=N/A time=00:20:24.76 bitrate=N/A speed=14.7x    frame=29530 fps=353 q=-0.0 size=N/A time=00:20:31.64 bitrate=N/A speed=14.7x    frame=29705 fps=353 q=-0.0 size=N/A time=00:20:38.94 bitrate=N/A speed=14.7x    frame=29878 fps=353 q=-0.0 size=N/A time=00:20:46.16 bitrate=N/A speed=14.7x    frame=30039 fps=353 q=-0.0 size=N/A time=00:20:52.87 bitrate=N/A speed=14.7x    frame=30220 fps=353 q=-0.0 size=N/A time=00:21:00.42 bitrate=N/A speed=14.7x    frame=30399 fps=353 q=-0.0 size=N/A time=00:21:07.89 bitrate=N/A speed=14.7x    frame=30580 fps=353 q=-0.0 size=N/A time=00:21:15.44 bitrate=N/A speed=14.7x    frame=30778 fps=353 q=-0.0 size=N/A time=00:21:23.69 bitrate=N/A speed=14.7x    frame=30964 fps=353 q=-0.0 size=N/A time=00:21:31.45 bitrate=N/A speed=14.7x    frame=31158 fps=353 q=-0.0 size=N/A time=00:21:39.54 bitrate=N/A speed=14.7x    frame=31348 fps=353 q=-0.0 size=N/A time=00:21:47.47 bitrate=N/A speed=14.7x    frame=31532 fps=353 q=-0.0 size=N/A time=00:21:55.14 bitrate=N/A speed=14.7x    frame=31727 fps=354 q=-0.0 size=N/A time=00:22:03.28 bitrate=N/A speed=14.7x    frame=31906 fps=353 q=-0.0 size=N/A time=00:22:10.74 bitrate=N/A speed=14.7x    frame=32091 fps=354 q=-0.0 size=N/A time=00:22:18.46 bitrate=N/A speed=14.7x    frame=32282 fps=354 q=-0.0 size=N/A time=00:22:26.42 bitrate=N/A speed=14.7x    frame=32473 fps=354 q=-0.0 size=N/A time=00:22:34.39 bitrate=N/A speed=14.8x    frame=32645 fps=354 q=-0.0 size=N/A time=00:22:41.56 bitrate=N/A speed=14.7x    frame=32792 fps=353 q=-0.0 size=N/A time=00:22:47.69 bitrate=N/A speed=14.7x    frame=32954 fps=353 q=-0.0 size=N/A time=00:22:54.45 bitrate=N/A speed=14.7x    frame=33135 fps=353 q=-0.0 size=N/A time=00:23:02.00 bitrate=N/A speed=14.7x    frame=33316 fps=353 q=-0.0 size=N/A time=00:23:09.55 bitrate=N/A speed=14.7x    frame=33479 fps=353 q=-0.0 size=N/A time=00:23:16.35 bitrate=N/A speed=14.7x    frame=33638 fps=353 q=-0.0 size=N/A time=00:23:22.98 bitrate=N/A speed=14.7x    frame=33769 fps=352 q=-0.0 size=N/A time=00:23:28.44 bitrate=N/A speed=14.7x    frame=33895 fps=351 q=-0.0 size=N/A time=00:23:33.70 bitrate=N/A speed=14.7x    frame=34059 fps=351 q=-0.0 size=N/A time=00:23:40.54 bitrate=N/A speed=14.6x    frame=34213 fps=351 q=-0.0 size=N/A time=00:23:46.96 bitrate=N/A speed=14.6x    frame=34360 fps=351 q=-0.0 size=N/A time=00:23:53.09 bitrate=N/A speed=14.6x    frame=34498 fps=350 q=-0.0 size=N/A time=00:23:58.85 bitrate=N/A speed=14.6x    [Parsed_psnr_16 @ 000001c7fc8c2d40] PSNR y:48.994748 u:50.352872 v:50.398267 average:49.408071 min:37.968839 max:inf
[out#0/null @ 000001c7ef3bfe80] video:14903KiB audio:271276KiB subtitle:0KiB other streams:0KiB global headers:0KiB muxing overhead: unknown
frame=34683 fps=350 q=-0.0 Lsize=N/A time=00:24:06.57 bitrate=N/A speed=14.6x    
